# Blender 4.1.1
# www.blender.org
mtllib star.mtl
o objStar
v 0.000000 1.729509 -0.099106
v 0.134537 1.824640 -0.003975
v 0.000000 1.919773 0.091155
v -0.134536 1.824640 -0.003975
v 0.000000 0.601814 1.218858
v -0.005621 1.725542 -0.095130
v -0.005621 1.915800 -0.095130
v -0.005621 1.915800 0.095131
v -0.005621 1.725542 0.095131
v 1.723725 1.820669 -0.000000
v 0.000000 1.721561 -0.091156
v -0.134536 1.816692 0.003975
v 0.000000 1.911823 0.099105
v 0.134537 1.816692 0.003975
v 0.000000 3.039524 -1.218857
v 0.005622 1.725542 -0.095130
v 0.005622 1.725542 0.095130
v 0.005622 1.915796 0.095131
v 0.005622 1.915796 -0.095130
v -1.723724 1.820669 -0.000000
v -0.003974 1.728352 -0.097942
v 0.091156 1.890745 -0.070079
v -0.003974 1.918610 0.092320
v -0.099105 1.756216 0.064456
v 1.218860 0.958803 0.861863
v -0.003974 1.722729 -0.092320
v -0.099105 1.885126 -0.064457
v -0.003974 1.912991 0.097942
v 0.091156 1.750593 0.070078
v 1.218860 2.682531 -0.861863
v 0.003976 1.722729 -0.092320
v -0.091156 1.750593 0.070078
v 0.003976 1.912991 0.097942
v 0.099106 1.885132 -0.064457
v -1.218855 2.682531 -0.861863
v 0.003976 1.728352 -0.097942
v 0.099106 1.756216 0.064456
v 0.003976 1.918610 0.092320
v -0.091154 1.890745 -0.070078
v -1.218855 0.958803 0.861863
v 0.000000 1.686134 -0.005622
v 0.134537 1.820669 -0.005622
v 0.000000 1.955202 -0.005622
v -0.134536 1.820669 -0.005622
v 0.000000 1.820669 1.723724
v -0.005621 1.686134 -0.000000
v -0.005621 1.820669 -0.134535
v -0.005621 1.955202 -0.000000
v -0.005621 1.820669 0.134535
v 1.723725 1.820669 -0.000000
v 0.000000 1.686134 0.005621
v -0.134536 1.820669 0.005621
v 0.000000 1.955202 0.005621
v 0.134537 1.820669 0.005621
v 0.000000 1.820669 -1.723725
v 0.005622 1.686134 -0.000000
v 0.005622 1.820669 0.134535
v 0.005622 1.955202 -0.000000
v 0.005622 1.820669 -0.134535
v -1.723724 1.820669 -0.000000
v -0.003974 1.686134 -0.003975
v 0.091156 1.820669 -0.099106
v -0.003974 1.955202 -0.003975
v -0.099105 1.820669 0.091157
v 1.218860 1.820669 1.218857
v -0.003974 1.686134 0.003975
v -0.099105 1.820669 -0.091156
v -0.003974 1.955202 0.003975
v 0.091156 1.820669 0.099105
v 1.218860 1.820669 -1.218857
v 0.003976 1.686134 0.003975
v -0.091156 1.820669 0.099105
v 0.003976 1.955202 0.003975
v 0.099106 1.820669 -0.091157
v -1.218855 1.820669 -1.218857
v 0.003976 1.686134 -0.003975
v 0.099106 1.820669 0.091155
v 0.003976 1.955202 -0.003975
v -0.091154 1.820669 -0.099106
v -1.218855 1.820669 1.218857
v 0.000000 1.826288 -0.134535
v 0.134537 1.826288 -0.000000
v 0.000000 1.826288 0.134535
v -0.134536 1.826288 -0.000000
v 0.000000 0.096945 -0.000000
v -0.005621 1.820669 -0.134535
v -0.005621 1.955202 -0.000000
v -0.005621 1.820669 0.134535
v -0.005621 1.686134 -0.000000
v 1.723725 1.820669 -0.000000
v 0.000000 1.815050 -0.134535
v -0.134536 1.815050 -0.000000
v 0.000000 1.815050 0.134535
v 0.134537 1.815050 -0.000000
v 0.000000 3.544390 -0.000000
v 0.005622 1.820669 -0.134535
v 0.005622 1.686134 -0.000000
v 0.005622 1.820669 0.134535
v 0.005622 1.955198 -0.000000
v -1.723724 1.820669 -0.000000
v -0.003974 1.824640 -0.134535
v 0.091156 1.919773 -0.000000
v -0.003974 1.824640 0.134535
v -0.099105 1.729509 -0.000000
v 1.218860 0.601814 -0.000000
v -0.003974 1.816692 -0.134535
v -0.099105 1.911823 -0.000000
v -0.003974 1.816692 0.134535
v 0.091156 1.721561 -0.000000
v 1.218860 3.039524 -0.000000
v 0.003976 1.816692 -0.134535
v -0.091156 1.721561 -0.000000
v 0.003976 1.816692 0.134535
v 0.099106 1.911823 -0.000000
v -1.218855 3.039524 -0.000000
v 0.003976 1.824640 -0.134535
v 0.099106 1.729515 -0.000000
v 0.003976 1.824640 0.134535
v -0.091154 1.919773 -0.000000
v -1.218855 0.601814 -0.000000
v 0.000000 1.721561 0.091155
v 0.134537 1.816692 -0.003975
v 0.000000 1.911823 -0.099106
v -0.134536 1.816692 -0.003975
v 0.000000 3.039524 1.218857
v -0.005621 1.725542 0.095131
v -0.005621 1.725542 -0.095130
v -0.005621 1.915800 -0.095130
v -0.005621 1.915800 0.095131
v 1.723725 1.820669 -0.000000
v 0.000000 1.729509 0.099105
v -0.134536 1.824640 0.003975
v 0.000000 1.919773 -0.091156
v 0.134537 1.824640 0.003975
v 0.000000 0.601814 -1.218857
v 0.005622 1.725542 0.095131
v 0.005622 1.915796 0.095130
v 0.005622 1.915800 -0.095130
v 0.005622 1.725542 -0.095130
v -1.723724 1.820669 -0.000000
v -0.003974 1.722729 0.092320
v 0.091156 1.750593 -0.070079
v -0.003974 1.912987 -0.097942
v -0.099105 1.885126 0.064456
v 1.218860 2.682531 0.861862
v -0.003974 1.728348 0.097942
v -0.099105 1.756216 -0.064457
v -0.003974 1.918610 -0.092320
v 0.091156 1.890745 0.070078
v 1.218860 0.958803 -0.861863
v 0.003976 1.728348 0.097942
v -0.091156 1.890745 0.070078
v 0.003976 1.918610 -0.092320
v 0.099106 1.756207 -0.064457
v -1.218855 0.958803 -0.861863
v 0.003976 1.722729 0.092320
v 0.099106 1.885126 0.064456
v 0.003976 1.912987 -0.097942
v -0.091154 1.750593 -0.070078
v -1.218855 2.682531 0.861862
v -0.272216 1.888508 -0.067842
v 0.000000 1.696022 -0.260327
v 0.000000 2.080996 0.124644
v 0.272217 1.888508 -0.067842
v -0.000002 0.485373 1.335284
v -0.095941 1.628187 0.192486
v -0.095941 1.628187 -0.192485
v -0.095941 2.013161 0.192485
v -0.095941 2.013161 -0.192485
v 1.888386 1.820669 -0.000000
v 0.272217 1.752825 0.067841
v 0.000000 1.560339 -0.124645
v 0.000000 1.945312 0.260327
v -0.272216 1.752825 0.067841
v -0.000003 3.155960 -1.335292
v 0.095942 2.013155 -0.192485
v 0.095942 1.628187 -0.192485
v 0.095942 2.013155 0.192486
v 0.095942 1.628187 0.192485
v -1.888386 1.820656 -0.000004
v -0.260327 1.732536 0.088136
v -0.067841 1.676157 -0.240457
v -0.067839 2.061131 0.144515
v 0.124643 2.004745 -0.184080
v 1.335299 0.876472 0.944184
v 0.124646 1.636593 0.184078
v -0.067839 1.580214 -0.144515
v -0.067840 1.965187 0.240455
v -0.260326 1.908802 -0.088139
v 1.335292 2.764860 -0.944192
v 0.260327 1.908806 -0.088137
v 0.067842 1.580217 -0.144514
v 0.067842 1.965187 0.240457
v -0.124646 1.636593 0.184079
v -1.335289 2.764860 -0.944192
v -0.124642 2.004745 -0.184079
v 0.067843 1.676157 -0.240457
v 0.067840 2.061131 0.144515
v 0.260327 1.732531 0.088139
v -1.335289 0.876469 0.944189
v -0.272216 1.820669 -0.095942
v 0.000000 1.548454 -0.095942
v 0.000000 2.092888 -0.095941
v 0.272217 1.820669 -0.095942
v 0.000005 1.820673 1.888387
v 0.272217 1.820669 0.095942
v 0.000000 1.548454 0.095942
v 0.000000 2.092888 0.095942
v -0.272216 1.820669 0.095942
v 0.000005 1.820673 -1.888386
v -0.260326 1.820660 0.124646
v -0.067840 1.548454 -0.067842
v -0.067840 2.092888 -0.067838
v 0.124646 1.820669 -0.260327
v 1.335292 1.820650 1.335294
v 0.124647 1.820669 0.260327
v -0.067840 1.548454 0.067842
v -0.067839 2.092888 0.067838
v -0.260326 1.820660 -0.124645
v 1.335280 1.820660 -1.335303
v 0.260328 1.820669 -0.124644
v 0.067842 1.548454 0.067839
v 0.067843 2.092888 0.067842
v -0.124646 1.820660 0.260327
v -1.335284 1.820646 -1.335296
v -0.124645 1.820669 -0.260326
v 0.067842 1.548454 -0.067840
v 0.067842 2.092888 -0.067839
v 0.260328 1.820660 0.124640
v -1.335289 1.820646 1.335291
v -0.272216 1.916613 -0.000000
v 0.000000 1.916613 -0.272216
v 0.000000 1.916613 0.272216
v 0.272217 1.916613 -0.000000
v 0.000005 -0.067719 0.000005
v 0.272217 1.724726 -0.000001
v 0.000000 1.724726 -0.272216
v 0.000000 1.724726 0.272216
v -0.272216 1.724726 -0.000001
v 0.000005 3.709053 -0.000001
v -0.260326 1.696022 -0.000001
v -0.067839 1.888508 -0.272216
v -0.067840 1.888508 0.272216
v 0.124643 2.080996 -0.000000
v 1.335283 0.485369 0.000002
v 0.124647 1.560343 -0.000000
v -0.067837 1.752825 -0.272216
v -0.067837 1.752825 0.272216
v -0.260327 1.945307 -0.000000
v 1.335327 3.155928 0.000007
v 0.260328 1.945307 -0.000000
v 0.067839 1.752825 -0.272215
v 0.067839 1.752825 0.272215
v -0.124649 1.560343 -0.000000
v -1.335347 3.155901 0.000007
v -0.124645 2.080990 -0.000000
v 0.067841 1.888508 -0.272216
v 0.067842 1.888508 0.272216
v 0.260328 1.696032 -0.000000
v -1.335299 0.485388 0.000003
v -0.272216 1.752831 -0.067841
v 0.000000 1.560339 0.124645
v 0.000000 1.945312 -0.260327
v 0.272217 1.752825 -0.067841
v -0.000003 3.155960 1.335289
v -0.095941 2.013161 0.192485
v -0.095941 1.628187 0.192486
v -0.095941 2.013161 -0.192485
v -0.095941 1.628187 -0.192485
v 1.888386 1.820669 -0.000000
v 0.272217 1.888508 0.067842
v 0.000000 1.696022 0.260327
v 0.000000 2.080996 -0.124644
v -0.272216 1.888508 0.067842
v -0.000003 0.485373 -1.335289
v 0.095942 1.628187 -0.192485
v 0.095942 1.628187 0.192486
v 0.095941 2.013161 -0.192485
v 0.095943 2.013155 0.192484
v -1.888386 1.820669 -0.000019
v -0.260326 1.908802 0.088137
v -0.067839 1.580214 0.144515
v -0.067840 1.965181 -0.240457
v 0.124647 1.636593 -0.184079
v 1.335299 2.764851 0.944192
v 0.124646 2.004745 0.184079
v -0.067839 1.676151 0.240457
v -0.067839 2.061131 -0.144515
v -0.260327 1.732536 -0.088137
v 1.335308 0.876478 -0.944176
v 0.260326 1.732531 -0.088139
v 0.067843 1.676151 0.240455
v 0.067843 2.061121 -0.144517
v -0.124645 2.004749 0.184078
v -1.335277 0.876472 -0.944212
v -0.124645 1.636587 -0.184076
v 0.067842 1.580217 0.144517
v 0.067842 1.965181 -0.240457
v 0.260328 1.908802 0.088135
v -1.335278 2.764856 0.944215
vn -0.0000 0.7071 -0.7071
vn 0.7038 -0.5659 -0.4294
vn 0.7038 0.4294 0.5659
vn -0.7038 0.4294 0.5659
vn -0.7038 -0.5659 -0.4294
vn -1.0000 -0.0000 -0.0000
vn 0.0965 -0.0000 -0.9953
vn 0.0966 0.9953 -0.0000
vn 0.0965 -0.0000 0.9953
vn 0.0965 -0.9953 -0.0000
vn -0.0000 -0.7071 0.7071
vn -0.7038 -0.4294 -0.5659
vn -0.7038 0.5659 0.4294
vn 0.7038 0.5659 0.4294
vn 0.7038 -0.4294 -0.5659
vn 1.0000 -0.0000 -0.0000
vn -0.0965 -0.9953 -0.0000
vn -0.0966 -0.0000 0.9953
vn -0.0966 0.9953 -0.0000
vn -0.0965 -0.0000 -0.9953
vn -0.7071 0.5000 -0.5000
vn 0.5659 -0.1940 -0.8013
vn 0.5659 0.8013 0.1940
vn -0.4294 0.0975 0.8978
vn -0.4294 -0.8978 -0.0975
vn -0.7071 -0.5000 0.5000
vn -0.4294 -0.0975 -0.8978
vn -0.4294 0.8978 0.0975
vn 0.5659 0.1940 0.8013
vn 0.5659 -0.8013 -0.1940
vn 0.7071 -0.5000 0.5000
vn -0.5659 -0.8013 -0.1940
vn -0.5659 0.1940 0.8013
vn 0.4294 0.8978 0.0975
vn 0.4294 -0.0975 -0.8978
vn 0.7071 0.5000 -0.5000
vn 0.4294 -0.8978 -0.0975
vn 0.4294 0.0975 0.8978
vn -0.5659 0.8013 0.1940
vn -0.5659 -0.1940 -0.8013
vn -0.0000 -0.0000 -1.0000
vn 0.7038 -0.7038 0.0965
vn 0.7038 0.7038 0.0965
vn -0.7038 0.7038 0.0966
vn -0.7038 -0.7038 0.0966
vn -0.0000 -0.0000 1.0000
vn -0.7038 -0.7038 -0.0966
vn -0.7038 0.7038 -0.0966
vn 0.7038 0.7038 -0.0965
vn 0.7038 -0.7038 -0.0965
vn -0.7071 -0.0000 -0.7071
vn 0.5659 -0.7038 -0.4294
vn 0.5659 0.7038 -0.4294
vn -0.4294 0.7038 0.5660
vn -0.4294 -0.7038 0.5659
vn -0.7071 -0.0000 0.7071
vn -0.4294 -0.7038 -0.5659
vn -0.4294 0.7038 -0.5659
vn 0.5659 0.7038 0.4294
vn 0.5659 -0.7038 0.4294
vn 0.7071 -0.0000 0.7071
vn -0.5659 -0.7038 0.4294
vn -0.5660 0.7038 0.4294
vn 0.4294 0.7038 -0.5659
vn 0.4294 -0.7038 -0.5659
vn 0.7071 -0.0000 -0.7071
vn 0.4294 -0.7038 0.5659
vn 0.4294 0.7038 0.5660
vn -0.5659 0.7038 -0.4294
vn -0.5659 -0.7038 -0.4294
vn -0.0000 1.0000 -0.0000
vn 0.7038 -0.0965 -0.7038
vn 0.7038 -0.0965 0.7038
vn -0.7038 -0.0965 0.7038
vn -0.7038 -0.0966 -0.7038
vn -0.0000 -1.0000 -0.0000
vn -0.7038 0.0966 -0.7038
vn -0.7038 0.0966 0.7038
vn 0.7038 0.0965 0.7038
vn 0.7038 0.0965 -0.7038
vn -0.7071 0.7071 -0.0000
vn 0.5659 0.4294 -0.7038
vn 0.5659 0.4294 0.7038
vn -0.4294 -0.5659 0.7038
vn -0.4294 -0.5659 -0.7038
vn -0.7071 -0.7071 -0.0000
vn -0.4294 0.5659 -0.7038
vn -0.4294 0.5659 0.7038
vn 0.5659 -0.4294 0.7038
vn 0.5659 -0.4294 -0.7038
vn 0.7071 -0.7071 -0.0000
vn -0.5659 -0.4294 -0.7038
vn -0.5659 -0.4294 0.7038
vn 0.4294 0.5660 0.7038
vn 0.4294 0.5660 -0.7038
vn 0.7071 0.7071 -0.0000
vn 0.4294 -0.5659 -0.7038
vn 0.4294 -0.5659 0.7038
vn -0.5659 0.4294 0.7038
vn -0.5659 0.4294 -0.7038
vn -0.0000 -0.7071 -0.7071
vn 0.7038 -0.4294 0.5659
vn 0.7038 0.5659 -0.4294
vn -0.7038 0.5659 -0.4294
vn -0.7038 -0.4294 0.5659
vn -0.0000 0.7071 0.7071
vn -0.7038 -0.5659 0.4294
vn -0.7038 0.4294 -0.5659
vn 0.7038 0.4294 -0.5659
vn 0.7038 -0.5659 0.4294
vn -0.7071 -0.5000 -0.5000
vn 0.5659 -0.8013 0.1940
vn 0.5659 0.1940 -0.8013
vn -0.4294 0.8978 -0.0975
vn -0.4294 -0.0975 0.8978
vn -0.7071 0.5000 0.5000
vn -0.4294 -0.8978 0.0975
vn -0.4294 0.0975 -0.8978
vn 0.5659 0.8013 -0.1940
vn 0.5659 -0.1940 0.8013
vn 0.7071 0.5000 0.5000
vn -0.5659 -0.1940 0.8013
vn -0.5659 0.8013 -0.1941
vn 0.4294 0.0975 -0.8978
vn 0.4294 -0.8978 0.0975
vn 0.7071 -0.5000 -0.5000
vn 0.4294 -0.0975 0.8978
vn 0.4294 0.8978 -0.0975
vn -0.5659 0.1940 -0.8013
vn -0.5659 -0.8013 0.1941
vn -0.7060 0.5381 0.4604
vn -0.7060 -0.4604 -0.5381
vn 0.7060 -0.4604 -0.5381
vn 0.7060 0.5381 0.4604
vn -0.0549 -0.0000 0.9985
vn -0.0549 -0.9985 -0.0000
vn -0.0549 -0.0000 -0.9985
vn -0.0549 0.9985 -0.0000
vn 0.7060 0.4604 0.5381
vn 0.7060 -0.5381 -0.4604
vn -0.7060 -0.5381 -0.4604
vn -0.7060 0.4604 0.5381
vn 0.0549 0.9985 -0.0000
vn 0.0549 -0.0000 -0.9985
vn 0.0549 -0.9985 -0.0000
vn 0.0549 -0.0000 0.9985
vn -0.5381 0.1737 0.8248
vn -0.5381 -0.8248 -0.1737
vn 0.4604 -0.1188 -0.8797
vn 0.4604 0.8797 0.1188
vn 0.4604 0.1188 0.8797
vn 0.4604 -0.8797 -0.1188
vn -0.5381 -0.1737 -0.8248
vn -0.5381 0.8248 0.1737
vn 0.5381 0.8248 0.1737
vn 0.5381 -0.1737 -0.8248
vn -0.4604 -0.8797 -0.1188
vn -0.4604 0.1188 0.8797
vn -0.4604 0.8797 0.1188
vn -0.4604 -0.1188 -0.8797
vn 0.5381 -0.8248 -0.1737
vn 0.5381 0.1737 0.8248
vn -0.7060 0.7060 -0.0549
vn -0.7060 -0.7061 -0.0549
vn 0.7060 -0.7060 -0.0549
vn 0.7060 0.7060 -0.0549
vn -0.0549 0.7060 0.7060
vn -0.0549 -0.7060 0.7060
vn -0.0549 -0.7060 -0.7060
vn -0.0549 0.7060 -0.7060
vn 0.7060 0.7060 0.0549
vn 0.7060 -0.7060 0.0549
vn -0.7060 -0.7061 0.0549
vn -0.7060 0.7060 0.0549
vn 0.0549 0.7060 -0.7060
vn 0.0549 -0.7060 -0.7060
vn 0.0549 -0.7060 0.7060
vn 0.0549 0.7060 0.7060
vn -0.5381 0.7060 0.4604
vn -0.5381 -0.7060 0.4604
vn 0.4604 -0.7060 -0.5381
vn 0.4604 0.7060 -0.5381
vn 0.4604 0.7060 0.5381
vn 0.4604 -0.7060 0.5381
vn -0.5381 -0.7060 -0.4604
vn -0.5381 0.7060 -0.4604
vn 0.5381 0.7060 -0.4604
vn 0.5381 -0.7060 -0.4604
vn -0.4604 -0.7060 0.5381
vn -0.4604 0.7060 0.5381
vn -0.4604 0.7060 -0.5381
vn -0.4604 -0.7060 -0.5381
vn 0.5381 -0.7060 0.4604
vn 0.5381 0.7060 0.4604
vn -0.7060 0.0549 0.7060
vn -0.7060 0.0549 -0.7060
vn 0.7060 0.0549 -0.7060
vn 0.7060 0.0549 0.7060
vn 0.7060 -0.0549 0.7060
vn 0.7060 -0.0549 -0.7060
vn -0.7060 -0.0549 -0.7060
vn -0.7060 -0.0549 0.7060
vn 0.0549 -0.7061 -0.7060
vn 0.0549 -0.7061 0.7060
vn -0.5381 -0.4604 0.7060
vn -0.5381 -0.4604 -0.7060
vn 0.4604 0.5381 -0.7060
vn 0.4604 0.5381 0.7060
vn 0.4604 -0.5381 0.7060
vn 0.4604 -0.5381 -0.7060
vn -0.5381 0.4604 -0.7060
vn -0.5381 0.4604 0.7060
vn 0.5381 0.4604 0.7060
vn 0.5381 0.4604 -0.7060
vn -0.4604 -0.5381 -0.7060
vn -0.4604 -0.5381 0.7060
vn -0.4604 0.5381 0.7060
vn -0.4604 0.5381 -0.7060
vn 0.5381 -0.4604 -0.7060
vn 0.5381 -0.4604 0.7060
vn -0.7060 0.4604 -0.5381
vn -0.7060 -0.5381 0.4604
vn 0.7060 -0.5381 0.4604
vn 0.7060 0.4604 -0.5381
vn 0.7060 0.5381 -0.4604
vn 0.7060 -0.4604 0.5381
vn -0.7060 -0.4604 0.5381
vn -0.7060 0.5381 -0.4604
vn -0.5381 0.8248 -0.1737
vn -0.5381 -0.1737 0.8248
vn 0.4604 -0.8797 0.1188
vn 0.4604 0.1188 -0.8797
vn 0.4604 0.8797 -0.1187
vn 0.4604 -0.1188 0.8797
vn -0.5381 -0.8248 0.1737
vn -0.5381 0.1737 -0.8248
vn 0.5381 0.1737 -0.8248
vn 0.5381 -0.8248 0.1737
vn -0.4604 -0.1188 0.8797
vn -0.4604 0.8797 -0.1188
vn -0.4604 0.1188 -0.8797
vn -0.4604 -0.8797 0.1188
vn 0.5381 -0.1737 0.8248
vn 0.5381 0.8248 -0.1737
vt 0.500000 0.000000
vt 0.750000 0.250000
vt 0.500000 0.500000
vt 0.250000 0.250000
vt 0.250000 0.500000
vt 0.375000 0.500000
vt 0.500000 1.000000
vt 0.625000 0.500000
vt 0.750000 0.500000
s 0
usemtl aiStandardSurface1SG
f 162/1/1 161/2/1 163/3/1 164/4/1
f 162/5/2 164/6/2 165/7/2
f 164/6/3 163/3/3 165/7/3
f 163/3/4 161/8/4 165/7/4
f 161/8/5 162/9/5 165/7/5
f 167/1/6 166/2/6 168/3/6 169/4/6
f 167/5/7 169/6/7 170/7/7
f 169/6/8 168/3/8 170/7/8
f 168/3/9 166/8/9 170/7/9
f 166/8/10 167/9/10 170/7/10
f 172/1/11 171/2/11 173/3/11 174/4/11
f 172/5/12 174/6/12 175/7/12
f 174/6/13 173/3/13 175/7/13
f 173/3/14 171/8/14 175/7/14
f 171/8/15 172/9/15 175/7/15
f 177/1/16 176/2/16 178/3/16 179/4/16
f 177/5/17 179/6/17 180/7/17
f 179/6/18 178/3/18 180/7/18
f 178/3/19 176/8/19 180/7/19
f 176/8/20 177/9/20 180/7/20
f 182/1/21 181/2/21 183/3/21 184/4/21
f 182/5/22 184/6/22 185/7/22
f 184/6/23 183/3/23 185/7/23
f 183/3/24 181/8/24 185/7/24
f 181/8/25 182/9/25 185/7/25
f 187/1/26 186/2/26 188/3/26 189/4/26
f 187/5/27 189/6/27 190/7/27
f 189/6/28 188/3/28 190/7/28
f 188/3/29 186/8/29 190/7/29
f 186/8/30 187/9/30 190/7/30
f 192/1/31 191/2/31 193/3/31 194/4/31
f 192/5/32 194/6/32 195/7/32
f 194/6/33 193/3/33 195/7/33
f 193/3/34 191/8/34 195/7/34
f 191/8/35 192/9/35 195/7/35
f 197/1/36 196/2/36 198/3/36 199/4/36
f 197/5/37 199/6/37 200/7/37
f 199/6/38 198/3/38 200/7/38
f 198/3/39 196/8/39 200/7/39
f 196/8/40 197/9/40 200/7/40
f 202/1/41 201/2/41 203/3/41 204/4/41
f 202/5/42 204/6/42 205/7/42
f 204/6/43 203/3/43 205/7/43
f 203/3/44 201/8/44 205/7/44
f 201/8/45 202/9/45 205/7/45
f 207/1/46 206/2/46 208/3/46 209/4/46
f 207/5/47 209/6/47 210/7/47
f 209/6/48 208/3/48 210/7/48
f 208/3/49 206/8/49 210/7/49
f 206/8/50 207/9/50 210/7/50
f 212/1/51 211/2/51 213/3/51 214/4/51
f 212/5/52 214/6/52 215/7/52
f 214/6/53 213/3/53 215/7/53
f 213/3/54 211/8/54 215/7/54
f 211/8/55 212/9/55 215/7/55
f 217/1/56 216/2/56 218/3/56 219/4/56
f 217/5/57 219/6/57 220/7/57
f 219/6/58 218/3/58 220/7/58
f 218/3/59 216/8/59 220/7/59
f 216/8/60 217/9/60 220/7/60
f 222/1/61 221/2/61 223/3/61 224/4/61
f 222/5/62 224/6/62 225/7/62
f 224/6/63 223/3/63 225/7/63
f 223/3/64 221/8/64 225/7/64
f 221/8/65 222/9/65 225/7/65
f 227/1/66 226/2/66 228/3/66 229/4/66
f 227/5/67 229/6/67 230/7/67
f 229/6/68 228/3/68 230/7/68
f 228/3/69 226/8/69 230/7/69
f 226/8/70 227/9/70 230/7/70
f 232/1/71 231/2/71 233/3/71 234/4/71
f 232/5/72 234/6/72 235/7/72
f 234/6/73 233/3/73 235/7/73
f 233/3/74 231/8/74 235/7/74
f 231/8/75 232/9/75 235/7/75
f 237/1/76 236/2/76 238/3/76 239/4/76
f 237/5/77 239/6/77 240/7/77
f 239/6/78 238/3/78 240/7/78
f 238/3/79 236/8/79 240/7/79
f 236/8/80 237/9/80 240/7/80
f 242/1/81 241/2/81 243/3/81 244/4/81
f 242/5/82 244/6/82 245/7/82
f 244/6/83 243/3/83 245/7/83
f 243/3/84 241/8/84 245/7/84
f 241/8/85 242/9/85 245/7/85
f 247/1/86 246/2/86 248/3/86 249/4/86
f 247/5/87 249/6/87 250/7/87
f 249/6/88 248/3/88 250/7/88
f 248/3/89 246/8/89 250/7/89
f 246/8/90 247/9/90 250/7/90
f 252/1/91 251/2/91 253/3/91 254/4/91
f 252/5/92 254/6/92 255/7/92
f 254/6/93 253/3/93 255/7/93
f 253/3/94 251/8/94 255/7/94
f 251/8/95 252/9/95 255/7/95
f 257/1/96 256/2/96 258/3/96 259/4/96
f 257/5/97 259/6/97 260/7/97
f 259/6/98 258/3/98 260/7/98
f 258/3/99 256/8/99 260/7/99
f 256/8/100 257/9/100 260/7/100
f 262/1/101 261/2/101 263/3/101 264/4/101
f 262/5/102 264/6/102 265/7/102
f 264/6/103 263/3/103 265/7/103
f 263/3/104 261/8/104 265/7/104
f 261/8/105 262/9/105 265/7/105
f 267/1/6 266/2/6 268/3/6 269/4/6
f 267/5/10 269/6/10 270/7/10
f 269/6/7 268/3/7 270/7/7
f 268/3/8 266/8/8 270/7/8
f 266/8/9 267/9/9 270/7/9
f 272/1/106 271/2/106 273/3/106 274/4/106
f 272/5/107 274/6/107 275/7/107
f 274/6/108 273/3/108 275/7/108
f 273/3/109 271/8/109 275/7/109
f 271/8/110 272/9/110 275/7/110
f 277/1/16 276/2/16 278/3/16 279/4/16
f 277/5/18 279/6/18 280/7/18
f 279/6/19 278/3/19 280/7/19
f 278/3/20 276/8/20 280/7/20
f 276/8/17 277/9/17 280/7/17
f 282/1/111 281/2/111 283/3/111 284/4/111
f 282/5/112 284/6/112 285/7/112
f 284/6/113 283/3/113 285/7/113
f 283/3/114 281/8/114 285/7/114
f 281/8/115 282/9/115 285/7/115
f 287/1/116 286/2/116 288/3/116 289/4/116
f 287/5/117 289/6/117 290/7/117
f 289/6/118 288/3/118 290/7/118
f 288/3/119 286/8/119 290/7/119
f 286/8/120 287/9/120 290/7/120
f 292/1/121 291/2/121 293/3/121 294/4/121
f 292/5/122 294/6/122 295/7/122
f 294/6/123 293/3/123 295/7/123
f 293/3/124 291/8/124 295/7/124
f 291/8/125 292/9/125 295/7/125
f 297/1/126 296/2/126 298/3/126 299/4/126
f 297/5/127 299/6/127 300/7/127
f 299/6/128 298/3/128 300/7/128
f 298/3/129 296/8/129 300/7/129
f 296/8/130 297/9/130 300/7/130
f 1/1/11 2/4/11 3/3/11 4/2/11
f 1/5/131 5/7/131 2/6/131
f 2/6/132 5/7/132 3/3/132
f 3/3/133 5/7/133 4/8/133
f 4/8/134 5/7/134 1/9/134
f 6/1/16 7/4/16 8/3/16 9/2/16
f 6/5/135 10/7/135 7/6/135
f 7/6/136 10/7/136 8/3/136
f 8/3/137 10/7/137 9/8/137
f 9/8/138 10/7/138 6/9/138
f 11/1/1 12/4/1 13/3/1 14/2/1
f 11/5/139 15/7/139 12/6/139
f 12/6/140 15/7/140 13/3/140
f 13/3/141 15/7/141 14/8/141
f 14/8/142 15/7/142 11/9/142
f 16/1/6 17/4/6 18/3/6 19/2/6
f 16/5/143 20/7/143 17/6/143
f 17/6/144 20/7/144 18/3/144
f 18/3/145 20/7/145 19/8/145
f 19/8/146 20/7/146 16/9/146
f 21/1/31 22/4/31 23/3/31 24/2/31
f 21/5/147 25/7/147 22/6/147
f 22/6/148 25/7/148 23/3/148
f 23/3/149 25/7/149 24/8/149
f 24/8/150 25/7/150 21/9/150
f 26/1/36 27/4/36 28/3/36 29/2/36
f 26/5/151 30/7/151 27/6/151
f 27/6/152 30/7/152 28/3/152
f 28/3/153 30/7/153 29/8/153
f 29/8/154 30/7/154 26/9/154
f 31/1/21 32/4/21 33/3/21 34/2/21
f 31/5/155 35/7/155 32/6/155
f 32/6/156 35/7/156 33/3/156
f 33/3/157 35/7/157 34/8/157
f 34/8/158 35/7/158 31/9/158
f 36/1/26 37/4/26 38/3/26 39/2/26
f 36/5/159 40/7/159 37/6/159
f 37/6/160 40/7/160 38/3/160
f 38/3/161 40/7/161 39/8/161
f 39/8/162 40/7/162 36/9/162
f 41/1/46 42/4/46 43/3/46 44/2/46
f 41/5/163 45/7/163 42/6/163
f 42/6/164 45/7/164 43/3/164
f 43/3/165 45/7/165 44/8/165
f 44/8/166 45/7/166 41/9/166
f 46/1/16 47/4/16 48/3/16 49/2/16
f 46/5/167 50/7/167 47/6/167
f 47/6/168 50/7/168 48/3/168
f 48/3/169 50/7/169 49/8/169
f 49/8/170 50/7/170 46/9/170
f 51/1/41 52/4/41 53/3/41 54/2/41
f 51/5/171 55/7/171 52/6/171
f 52/6/172 55/7/172 53/3/172
f 53/3/173 55/7/173 54/8/173
f 54/8/174 55/7/174 51/9/174
f 56/1/6 57/4/6 58/3/6 59/2/6
f 56/5/175 60/7/175 57/6/175
f 57/6/176 60/7/176 58/3/176
f 58/3/177 60/7/177 59/8/177
f 59/8/178 60/7/178 56/9/178
f 61/1/61 62/4/61 63/3/61 64/2/61
f 61/5/179 65/7/179 62/6/179
f 62/6/180 65/7/180 63/3/180
f 63/3/181 65/7/181 64/8/181
f 64/8/182 65/7/182 61/9/182
f 66/1/66 67/4/66 68/3/66 69/2/66
f 66/5/183 70/7/183 67/6/183
f 67/6/184 70/7/184 68/3/184
f 68/3/185 70/7/185 69/8/185
f 69/8/186 70/7/186 66/9/186
f 71/1/51 72/4/51 73/3/51 74/2/51
f 71/5/187 75/7/187 72/6/187
f 72/6/188 75/7/188 73/3/188
f 73/3/189 75/7/189 74/8/189
f 74/8/190 75/7/190 71/9/190
f 76/1/56 77/4/56 78/3/56 79/2/56
f 76/5/191 80/7/191 77/6/191
f 77/6/192 80/7/192 78/3/192
f 78/3/193 80/7/193 79/8/193
f 79/8/194 80/7/194 76/9/194
f 81/1/76 82/4/76 83/3/76 84/2/76
f 81/5/195 85/7/195 82/6/195
f 82/6/196 85/7/196 83/3/196
f 83/3/197 85/7/197 84/8/197
f 84/8/198 85/7/198 81/9/198
f 86/1/16 87/4/16 88/3/16 89/2/16
f 86/5/168 90/7/168 87/6/168
f 87/6/169 90/7/169 88/3/169
f 88/3/170 90/7/170 89/8/170
f 89/8/167 90/7/167 86/9/167
f 91/1/71 92/4/71 93/3/71 94/2/71
f 91/5/199 95/7/199 92/6/199
f 92/6/200 95/7/200 93/3/200
f 93/3/201 95/7/201 94/8/201
f 94/8/202 95/7/202 91/9/202
f 96/1/6 97/4/6 98/3/6 99/2/6
f 96/5/178 100/7/178 97/6/178
f 97/6/175 100/7/175 98/3/175
f 98/3/203 100/7/203 99/8/203
f 99/8/204 100/7/204 96/9/204
f 101/1/91 102/4/91 103/3/91 104/2/91
f 101/5/205 105/7/205 102/6/205
f 102/6/206 105/7/206 103/3/206
f 103/3/207 105/7/207 104/8/207
f 104/8/208 105/7/208 101/9/208
f 106/1/96 107/4/96 108/3/96 109/2/96
f 106/5/209 110/7/209 107/6/209
f 107/6/210 110/7/210 108/3/210
f 108/3/211 110/7/211 109/8/211
f 109/8/212 110/7/212 106/9/212
f 111/1/81 112/4/81 113/3/81 114/2/81
f 111/5/213 115/7/213 112/6/213
f 112/6/214 115/7/214 113/3/214
f 113/3/215 115/7/215 114/8/215
f 114/8/216 115/7/216 111/9/216
f 116/1/86 117/4/86 118/3/86 119/2/86
f 116/5/217 120/7/217 117/6/217
f 117/6/218 120/7/218 118/3/218
f 118/3/219 120/7/219 119/8/219
f 119/8/220 120/7/220 116/9/220
f 121/1/106 122/4/106 123/3/106 124/2/106
f 121/5/221 125/7/221 122/6/221
f 122/6/222 125/7/222 123/3/222
f 123/3/223 125/7/223 124/8/223
f 124/8/224 125/7/224 121/9/224
f 126/1/16 127/4/16 128/3/16 129/2/16
f 126/5/138 130/7/138 127/6/138
f 127/6/135 130/7/135 128/3/135
f 128/3/136 130/7/136 129/8/136
f 129/8/137 130/7/137 126/9/137
f 131/1/101 132/4/101 133/3/101 134/2/101
f 131/5/225 135/7/225 132/6/225
f 132/6/226 135/7/226 133/3/226
f 133/3/227 135/7/227 134/8/227
f 134/8/228 135/7/228 131/9/228
f 136/1/6 137/4/6 138/3/6 139/2/6
f 136/5/144 140/7/144 137/6/144
f 137/6/145 140/7/145 138/3/145
f 138/3/146 140/7/146 139/8/146
f 139/8/143 140/7/143 136/9/143
f 141/1/121 142/4/121 143/3/121 144/2/121
f 141/5/229 145/7/229 142/6/229
f 142/6/230 145/7/230 143/3/230
f 143/3/231 145/7/231 144/8/231
f 144/8/232 145/7/232 141/9/232
f 146/1/126 147/4/126 148/3/126 149/2/126
f 146/5/233 150/7/233 147/6/233
f 147/6/234 150/7/234 148/3/234
f 148/3/235 150/7/235 149/8/235
f 149/8/236 150/7/236 146/9/236
f 151/1/111 152/4/111 153/3/111 154/2/111
f 151/5/237 155/7/237 152/6/237
f 152/6/238 155/7/238 153/3/238
f 153/3/239 155/7/239 154/8/239
f 154/8/240 155/7/240 151/9/240
f 156/1/116 157/4/116 158/3/116 159/2/116
f 156/5/241 160/7/241 157/6/241
f 157/6/242 160/7/242 158/3/242
f 158/3/243 160/7/243 159/8/243
f 159/8/244 160/7/244 156/9/244
